<svg viewBox=".0138949 -.00108137 1178.87 739.291" xmlns="http://www.w3.org/2000/svg"><path d="m761.09 722.54c-1.13 2-4.34 5.3 1.2 9.96.88-5.7 6.48-6.73-1.2-9.96z" fill="#4d4d4d"/><path d="m621.89 560.94s60.78 30.46 89.37 66.34c0 0 2.65 8.84 7.52 12.16 14.57 28.79 36.4 41.28 38.29 59.75.31 3.06 2.45 4.14 1.76 6.62-.75 5.31-2.01 8.8-1.64 13.97.11 1.51-1.14 2.65-.19 4.27-.48 4.46-.44 9.56 2.3 9.57.71-1.64 2.47-5.93 4.21-6.65.57-.23 1.26.69 2.71.26s3.11-.8 4.13-1.51c1.22-.85 5.63-1.03 9.3-7.35 15.1-9.93 17.71-4.41 21.42-17.25-.18-8.83-10.17-11.56-11.45-12.92-13.1-13.95-15.48-24.33-20.82-33.74-6.02-18.09-16.4-40.71-16.4-40.71-6.11-15.36-12.4-19.85-6.58-49.26s2.24-35.46 23.76-40.89" fill="#808080"/><path d="m435.05 549.94c2.47 6.58 35.26 74.7 35.38 80.27-7.64 26.6-.92 42.27-2.6 59.12 0 0-3.93 6.51 1.07 20.13 0 0-3.36 25.82-2.69 28.64 1.02.29 13.33 1.25 15.02 1.15.21.01 8.52-.05 11.82-.05l6.85-.07c1.42-2.62 7.23 1.33 4.49-10.25l-5.18-8.9c-6.59-35.32 11.3-53.5 7.9-88.36-.48-4.94 2.13-15.22.82-21.56-1.96-9.46-4.39-55.47-21.83-97.31" fill="#808080"/><path d="m715.92 586.71c11.76-2.55-1.49-2.77 39.58-9.76 23.27-4.62 27.63-17.06 51.67-14.17 48.86 5.87 89.72 27.04 139.71 31.59s112.5-8.71 165.21 1.56c39.25 8.63 70.14 35.51 66.5 25.52-32.63-20.85-27.53-23.25-58.03-35.52s-97.68-18.79-149.11-25.29c-51.44-6.5-92.22-41.78-132.04-56.48-31.68-14.37-51.15-18.98-67.98-25.16-12.73-4.67-19.21-8-30.47-14.99-35.11-18.59-57.11-27.23-81.01-36.19-20.2-6.31-92.99-60.27-143.14-74.93-33.64-12.11-58.85-17.12-82.78-36.71-61.3-42.01-91.64-78.63-127.29-130.47 0 0-54.72-75.9-84.7-102.6-29.97-26.7-60.42-49.74-81.79-61.12-21.38-11.37-54.42-22.12-78.25-21.99-23.84.13-40.36 3.87-40.36 3.87-2.39-.08-6.09.02-10.56 1.96-3.94 1.72-5.77 4.6-6.23 7.94-.4 2.87-.42 7.75.93 12.84 1.07 4.63.17 8.36-2.94 12.21-5.18 4.11-2.71 13.73 3.13 14.98 0 0 2.08 1.41 2.63 1.58.12.03.32-.26.49-.16 0 0 1.03.29 1.09.12-.1-.32.25-.07.25-.07s-.34 1.02.35 1.19c1.72 1.75 5.42 2.68 7.62.94 2.63-2.44 6.14-6.85 9.38-7.31 2.17-.3 5.85-.55 5.85-.55 4.15 2.78 9.65.05 12.53 1.85 3.11.88 3.38-.2 10.92.65 1.74.2 8.26.81 10.98.48 6.2.21 9.94 1.39 19.88 4.06s25.9 13.89 33.5 18.89c26.83 17.64 48 41.3 66.93 65.67 32.67 47.7 48.9 62.53 64.4 105.12 20.95 57.59 44.61 101.19 74.88 138.46 30.71 31.94 46.42 56.01 46.42 56.01 6.27 15.37 3.8 32.95 8.97 46.74 4.89 12.58 10.48 21.47 24.49 39.29 47.28 32.64 93 59.02 146.15 66.65 39.75 3.28 112.42 4.34 162.24-6.7z" fill="#4d4d4d"/><path d="m661.68 470.62-24.73-27.34c9.73 21.9 8.8 74.69-24.26 98.53-33.05 23.84-59.78 28.21-127.69 4.65 48.72 49.1 99.47 41.15 141.38 23.48 28.27-18.06 25.82 19.85 25.82 19.85z" fill="#333"/><path d="m715.43 572.79 22.9-40.58s23.68 2.31 48.35 6.7c19.6 3.48 47.01 13.98 64.04 19.33-27.35-8.91-72.88-28.28-113.43-3.68-14.95 15.19-21.86 18.22-21.86 18.22z" fill="#333"/><path d="m641.81 430.19c-37.77 2.21-11.82 8.35-9.44 10.29 25.34 20.56 17.22 71.35 16.67 102.63-.64 36.29-4.23 56.83-4.48 75.02-3.7 11.04 1.24 14.18 1.18 18.24 0 0 6.15 46.38 5.31 58.57-.93 1.53.25 3.97-.6 5.25-3.04 4.55-1.73 7.43-1.73 7.43-1.65 3.44-4.59 4.72-6.25 8.89-1.46 1.25-14.17 4.58-13.57 6.6-8.52 3.51-9.73 10.56-9.63 15.57 1.39-1.5 2.64-3.54 4.01-4.28 0 0-1.37 1.46-.8 4.76.85-1.77 4.93-4.25 5.83-4.36-1.47 2.29-.87 4.49-.87 4.49 4.42-3.28 6.69-3.25 8.12-3.32.45 2.07 4.06 2.1 7.28 1.91 4.05 2.44 6.45.91 9.16.4 3.64-.88 11.11.19 17.82-.01 5.43.63 7.41.1 9.98-1.09 6.64-1.25 1.89-14.83 1.22-20.5 0 0 2.91-2.04 3.29-9.66 0-3.45-1.11-6.54-1.78-11.56-.87-6.48-.48-33.4.38-36.36 3.99-13.75 13.21-41.88 8.48-53.68 4.24-18.38 14.09-19 24.05-32.62 0 0 9.3-20.27 54.16-40.21" fill="#4d4d4d"/><path d="m452.2 441.17c8.99 57.89 6.75 158.64 6.1 161.6-1.82 8.27-4.05 7.92-9.18 14.39 0 0-10.15 21.62-28.27 35.66s-18.17 15.97-23.41 22.09c-5.81 6.78-10.57 15.8-11.63 27.41-.14 1.53.8 4.27-.83 5.77 0 0 2.43 3.72 1.43 6.41-1.22.54-2.52 1.73-3.49 1.07 0 0-7.59 1.53-19.09 1.21-.03-.01-.06-.02-.09-.03 0 0-5.69-.36-7.83-2.07l-2.88-.41c-5.55 1.06-4.88-6.52 1.24-9.61.03.23 7.81-25.27 7.81-25.27.38-2.79 1.25-7.42 1.25-7.42-.69-12.19 4.72-17.03 11.54-25.77 3.78-4.84 7.11-9.99 9.89-14.01 11.82-17.09 16.08-30.27 30.9-42.38-5.32-28.16-14.34-46.52-20.16-86.01" fill="#4d4d4d"/><g fill="#333"><path d="m90.92 17.15c-.16.65 33.73 11.55 62.64 32.12 32.39 23.51 90.63 77.16 117.42 120.61 26.88 43.6 25.32 43.65 51.34 80.22l.01.02.01.01c32.74 41.22 95.71 97.33 96.16 96.85.45-.49-62.45-56.53-95.12-97.66 0 0-.01-.01-.01-.01-25.97-36.51-24.38-36.51-51.27-80.12-26.98-43.77-85.22-97.37-117.77-120.99-29.13-20.74-63.24-31.7-63.4-31.05z"/><path d="m655.81 445.6s53.36 15.67 85.62 39.09c5.77 4.18 11.75 7.95 12.09 7.39.34-.57-5.59-4.31-11.31-8.46-32.67-23.71-86.4-38.02-86.4-38.02z"/><path d="m356.79 368.82c31.56 39.51 16.72 69.55 17.25 71.94 5.39 15.4 2.71 37.54 10.62 50.3-9.48-36.73 1.66-50.06 4.93-57.54 4.71-10.75 6.08-9.75 10.64-22.11s-60.52-63.2-43.45-42.59z"/><path d="m455.13 490.48c3.73 13.83 4.16 66.82 4.16 66.82 3.32-15.35-4.16-71.15 6.38-99.22 28.72-78.89 115.43-49.29 160.43-24.49-46.13-35.75-95.91-43.9-127.64-29.35-24.86 13.95-42.34 32.6-43.56 71.9-.07 2.28-9.14-12.71-9.1-10.28.04 2.36 9.19 22.13 9.33 24.64z" opacity=".7"/><path d="m6.52 22.7c1.59 3.36.99 9.5 2.81 4.54 1.6-10.13 1.12-18.57-.27-19.05-2.79-.97-6.22 7.52-2.53 14.51z" opacity=".14"/><path d="m671.19 724.22c7.08-7.57 7.12-8.12 1.08-23.43-.69-1.97 1.58-12.58.7-12.99-.91-.42-2.28 1.73-4.88 10.07-.86 7.19 1.4 5.69 2.76 8.17 4.32 10.43-3 17.44-13.08 19.79 0 0-9.81 22.03 13.42-1.6z"/><path d="m701.5 570.11c-12.81 11.39-34.4 24.74-34.4 24.74s21.87-8.63 34.63-20.45c22.31-20.66 36.33-58.26 36.69-60.18-5.34 12.74-25.71 45.92-36.92 55.89z"/><path d="m759.69 495.51s68.83 20.49 102.58 41.77c33.56 21.16 65.52 29.37 89.86 32.71 12.17 1.67 43.46 2.47 43.46 2.47s-31.18-2.12-43.28-3.78c-24.2-3.33-55.97-11.48-89.34-32.52-34.12-21.52-103.29-40.65-103.29-40.65z"/><path d="m26.62 50.37c5.05-.39 7.55-.15 8.28-.22 9.71-7.39 12.48-10.45 25.95-7.91 8.74 2.1 33.91.24 56.4 16.09 36.83 25.97 110.02 118.49 110.34 117.7 1.58-5.34-42.98-58.41-75.89-90.62-33.08-32.38-57.14-45.72-102.78-48.02-1.92-.1-1.49-3.51-1.07-4.85 1.7-5.38 39.2 7.25 39.16 6.37-12.91-2.97-30.83-11.3-41.83-10.38-1.98 7.04-1.71 9.61-7.88 12.67-3.88 3.06-5.95 4.46-10.68 9.16z"/><path d="m23.08 16.52c4.15.49 1.02 5.05-.25 9.17-1.69 5.47-9.22 10.62-9.9 12.72-.76 2.37 9.61-6.52 12.72-12.19 1.99-4.53.84-6.79 1.57-10.06 1.15-5.2 1.24-7.62-.96-9.3-1.14-.87-2.83-1.02-5.16-.21-2.82 1.45-4.63 9.09 1.98 9.86z" opacity=".6"/></g><path d="m23.34 13.26s-1.05.25-1.57-1.45c-.44-1.08 1.56-2.92 2.68-1.72s.16 3.12-1.11 3.17z" fill="#808080"/><g fill="#333"><path d="m9.21 54.91s.5.14 1.21.36c0 0-.09 1.09.28.83 10.27-7.31 14.61-12.85 18.8-18.09 2.26-3.47 10.91-6.14 9.05-5.67-1.86.48-7.12 1.51-9.67 4.09-5.62 8.06-12.91 12.08-19.67 18.47z"/><path d="m11.36 29.68c-4 6.87-3.83 12.34 3.1 8.65 6.72-6.1 9.45-3.81 15.26-2.37 1.08-.85 3.86-2.32 3.86-2.32s-9.03-.99-6.66-11.96c.28-2.6-2.41-3.97-6.15-3.77-3.12.69-4.89-5.48-4.89-5.48-.75 6.13-2.58 11.43-4.52 17.25z" opacity=".4"/><path d="m26.88 3.95c-.73.01-1.55.17-2.46.5 6.12.71 5.63 6.39 5.22 10.57-.25 2.45.78 4.07-.22 7.02-1.7 4.07 1.18 5.06 2.96 6.41 1.8 1.36 4.91 1.98 7.1.35 2.04-2.65-3.7-8.54-6.16-10.71-1.87-3.42-.52-7.42-1.63-10.51-.74-2-2.25-3.68-4.81-3.63z" opacity=".14"/></g><path d="m653.99 655.75c-.16-14.68.87-27.85 8.14-39.1 7.28-11.25 12.89-14.49 18.98-12.76-3.91-2.84-10.01-.37-15.6 5.29-10.08 10.21-17.44 31.18-11.53 46.57z" fill="#343434"/><path d="m384.38 663.55c-.16-14.68 14.09-33.6 23.13-44.85 9.05-11.25 31.1-15.88 31.1-15.88s-21.78 3.46-28.78 10.18c-10.35 9.94-31.37 35.17-25.46 50.56z" fill="#343434"/><path d="m451.81 577.3c4.33 2.89 2.87 9.15.44 10.97-3.86 2.9-15.27 7.93-15.27 7.93-.72-.81 18.81-12.3 13.53-17.3-4.49-4.24-5.81-4.77-10.24-8.87-22.31-20.66-26.04-35.02-26.4-36.94 10.16 19.21 20.48 30.96 37.93 44.22z" fill="#333"/><path d="m479.35 731.45c1.12 2.75-1.84 5.68 5.33 7.33-3.48-3.12 3.89-9.24-5.33-7.33z" fill="#4d4d4d"/><path d="m349.66 709.41c-.74 2.2-.73 5.52 4.26 4.83-1.59-1.68-.62-5.71-1.08-6.89-.27-.7-1.86-.33-3.19 2.05z" fill="#333"/><path d="m355.92 714.68c1.37 1.62 4.78 1.87 7.14 1.96-3.48-3.12-1.43-8.49-7.14-1.96z" fill="#333"/><path d="m479.76 731.51c1.12 2.75-1.84 5.68 5.33 7.33-3.48-3.12 3.89-9.24-5.33-7.33z" fill="#4d4d4d"/><path d="m466.91 730.48c-1.24.77-2.23 5.05-2.03 7.36 5.21.91 5.23.76 2.03-7.36z" fill="#4d4d4d"/><g fill="#333"><path d="m628.9 723.1c-3 1.62-9.43 4.13-9.52 15.24 2.36-2.67 6.27-6.49 8.2-7.83 1.13-.79 1.15-5.13 1.32-7.41z"/><path d="m631.56 726.47c-2.5 1.62-9.04 1.57-9.13 12.68 2.36-2.67 4.57-4.36 7.37-5.4 1.29-.48 1.59-5.01 1.76-7.28z"/><path d="m635.76 729.36c-2.5 1.62-7.04 2-8.32 9.92 2.36-2.67 6.05-2.65 7.98-4 1.13-.79.18-3.64.35-5.92z"/></g><path d="m757 724.04c-1.13 2-.62 8.79 2.3 9.57.55-3.12 3.86-6.81 3.86-6.81s-3.44-1.41-6.16-2.76z" fill="#4d4d4d"/></svg>