<?xml version="1.0" encoding="utf-8" ?>	<!-- Generator: Assembly 1.8 - http://assemblyapp.co -->	<svg version="1.1" xmlns="http://www.w3.org/2000/svg" xmlns:xlink="http://www.w3.org/1999/xlink" width="2048.00" height="2048.00" viewBox="0 0 2048.0 2048.0">		<rect x="0" y="0" width="2048.00" height="2048.00" fill="#ffffff" />		<g id="document" transform="matrix(1,0,0,1,1024.0,1024.0)">			<g>				<path d="M-35.1976,-494.315 L-35.1976,1013.45 C-8.81175,1013.45 0.611765,1013.45 0.611765,1013.45 L0.611765,-494.315 C0.611765,-494.315 -12.5812,-494.315 -35.1976,-494.315 Z M-478.103,1013.45 C-231.207,1013.45 -106.816,1013.45 -48.3905,1013.45 L-48.3905,-494.315 C-87.9693,-494.315 -148.28,-494.315 -206.706,-494.315 C32.6517,525.31 -402.715,922.982 -478.103,1013.45 Z M-78.5458,949.368 L-391.406,949.368 C-370.675,924.867 -346.174,894.711 -321.672,857.017 L-80.4305,857.017 L-80.4305,949.368 L-78.5458,949.368 Z M-78.5458,798.592 L-283.978,798.592 C-267.016,770.321 -250.054,740.166 -234.976,706.241 L-78.5458,706.241 L-78.5458,798.592 Z M-78.5458,662.893 L-214.244,662.893 C-201.051,634.622 -189.743,602.582 -178.435,570.543 L-76.6611,570.543 L-76.6611,662.893 L-78.5458,662.893 Z M-78.5458,527.194 L-167.127,527.194 C-157.703,497.039 -150.164,466.884 -142.626,434.844 L-78.5458,434.844 L-78.5458,527.194 L-78.5458,527.194 Z M-78.5458,-256.842 L-129.433,-256.842 C-133.202,-286.997 -138.856,-317.153 -144.51,-349.193 L-78.5458,-349.193 L-78.5458,-256.842 Z M-78.5458,-392.541 L-153.934,-392.541 C-159.588,-422.696 -167.127,-452.851 -174.666,-484.891 L-80.4305,-484.891 L-80.4305,-392.541 L-78.5458,-392.541 Z " fill="#bc5757" fill-opacity="1.00" />				<path d="M36.4211,-494.315 L36.4211,1013.45 C10.0353,1013.45 0.611767,1013.45 0.611767,1013.45 L0.611767,-494.315 C0.611767,-494.315 13.8047,-494.315 36.4211,-494.315 Z M479.326,1013.45 C232.43,1013.45 108.04,1013.45 49.614,1013.45 L49.614,-494.315 C89.1928,-494.315 149.503,-494.315 207.929,-494.315 C-31.4282,525.31 403.938,922.982 479.326,1013.45 Z M79.7693,949.368 L392.63,949.368 C371.898,924.867 347.397,894.711 322.896,857.017 L81.654,857.017 L81.654,949.368 L79.7693,949.368 Z M79.7693,798.592 L285.202,798.592 C268.24,770.321 251.277,740.166 236.2,706.241 L79.7693,706.241 L79.7693,798.592 Z M79.7693,662.893 L215.468,662.893 C202.275,634.622 190.967,602.582 179.659,570.543 L77.8846,570.543 L77.8846,662.893 L79.7693,662.893 Z M79.7693,527.194 L168.35,527.194 C158.927,497.039 151.388,466.884 143.849,434.844 L79.7693,434.844 L79.7693,527.194 L79.7693,527.194 Z M79.7693,-256.842 L130.656,-256.842 C134.426,-286.997 140.08,-317.153 145.734,-349.193 L79.7693,-349.193 L79.7693,-256.842 Z M79.7693,-392.541 L155.157,-392.541 C160.812,-422.696 168.35,-452.851 175.889,-484.891 L81.654,-484.891 L81.654,-392.541 L79.7693,-392.541 Z " fill="#bc5757" fill-opacity="1.00" />				<path d="M485.062,-841.583 L-485.126,-841.583 C-510.8,-841.583 -529.717,-821.314 -529.717,-796.992 C-529.717,-771.319 -509.449,-752.401 -485.126,-752.401 L-449.994,-752.401 L-382.432,-636.195 C-364.866,-607.819 -333.788,-588.901 -301.358,-588.901 L-278.387,-588.901 L-200.015,-521.34 C-181.098,-503.773 -155.424,-494.315 -129.751,-494.315 L129.687,-494.315 C155.36,-494.315 181.034,-503.773 199.951,-521.34 L278.323,-588.901 L301.294,-588.901 C335.075,-588.901 366.154,-606.468 382.368,-636.195 L449.93,-752.401 L485.062,-752.401 C510.736,-752.401 529.653,-772.67 529.653,-796.992 C531.005,-821.314 510.736,-841.583 485.062,-841.583 Z M254.001,-746.996 L254.001,-613.224 L148.604,-613.224 L148.604,-746.996 L254.001,-746.996 L254.001,-746.996 Z M120.228,-746.996 L120.228,-613.224 L14.8317,-613.224 L14.8317,-746.996 L120.228,-746.996 L120.228,-746.996 Z M-14.8955,-746.996 L-14.8955,-613.224 L-120.292,-613.224 L-120.292,-746.996 L-14.8955,-746.996 L-14.8955,-746.996 Z M-150.019,-746.996 L-150.019,-613.224 L-255.416,-613.224 L-255.416,-746.996 L-150.019,-746.996 L-150.019,-746.996 Z M-285.143,-611.872 L-305.412,-611.872 C-327.031,-611.872 -345.949,-622.682 -356.759,-641.6 L-417.564,-746.996 L-285.143,-746.996 L-285.143,-611.872 L-285.143,-611.872 Z M359.397,-641.6 C348.587,-624.034 329.67,-611.872 308.05,-611.872 L287.782,-611.872 L287.782,-745.645 L420.203,-745.645 L359.397,-641.6 Z M353.992,-976.707 C318.86,-1006.43 275.621,-1024 229.679,-1024 L-229.742,-1024 C-275.684,-1024 -320.275,-1007.79 -354.056,-976.707 L-491.883,-856.447 L491.819,-856.447 L353.992,-976.707 Z " fill="#d97f7f" fill-opacity="1.00" />			</g>		</g>	</svg>